<?xml version="1.0" encoding="utf-8" standalone="no"?>
<!DOCTYPE svg PUBLIC "-//W3C//DTD SVG 1.1//EN"
  "http://www.w3.org/Graphics/SVG/1.1/DTD/svg11.dtd">
<svg xmlns:xlink="http://www.w3.org/1999/xlink" width="371.52pt" height="714.6025pt" viewBox="0 0 371.52 714.6025" xmlns="http://www.w3.org/2000/svg" version="1.1">
 <metadata>
  <rdf:RDF xmlns:dc="http://purl.org/dc/elements/1.1/" xmlns:cc="http://creativecommons.org/ns#" xmlns:rdf="http://www.w3.org/1999/02/22-rdf-syntax-ns#">
   <cc:Work>
    <dc:type rdf:resource="http://purl.org/dc/dcmitype/StillImage"/>
    <dc:date>2023-09-18T18:08:20.092535</dc:date>
    <dc:format>image/svg+xml</dc:format>
    <dc:creator>
     <cc:Agent>
      <dc:title>Matplotlib v3.7.1, https://matplotlib.org/</dc:title>
     </cc:Agent>
    </dc:creator>
   </cc:Work>
  </rdf:RDF>
 </metadata>
 <defs>
  <style type="text/css">*{stroke-linejoin: round; stroke-linecap: butt}</style>
 </defs>
 <g id="figure_1">
  <g id="patch_1">
   <path d="M 0 714.6025 
L 371.52 714.6025 
L 371.52 0 
L 0 0 
z
" style="fill: #ffffff"/>
  </g>
  <g id="axes_1">
   <g id="text_1">
    <!--  1 -->
    <g style="fill: #f05400" transform="translate(151.4225 67.9875) scale(0.8 -0.8)">
     <defs>
      <path id="Tahoma-20" transform="scale(0.015625)"/>
      <path id="Tahoma-31" d="M 2975 0 
L 706 0 
L 706 475 
L 1550 475 
L 1550 3594 
L 706 3594 
L 706 4019 
Q 1184 4019 1411 4155 
Q 1638 4291 1666 4669 
L 2150 4669 
L 2150 475 
L 2975 475 
L 2975 0 
z
" transform="scale(0.015625)"/>
     </defs>
     <use xlink:href="#Tahoma-20"/>
     <use xlink:href="#Tahoma-31" x="31.25"/>
    </g>
    <!--  0 -->
    <g style="fill: #f05400" transform="translate(151.4225 157.0325) scale(0.8 -0.8)">
     <defs>
      <path id="Tahoma-30" d="M 3234 2328 
Q 3234 1075 2870 489 
Q 2506 -97 1747 -97 
Q 978 -97 618 500 
Q 259 1097 259 2322 
Q 259 3581 623 4164 
Q 988 4747 1747 4747 
Q 2516 4747 2875 4144 
Q 3234 3541 3234 2328 
z
M 2434 909 
Q 2525 1141 2562 1494 
Q 2600 1847 2600 2328 
Q 2600 2806 2562 3159 
Q 2525 3513 2431 3747 
Q 2338 3984 2173 4107 
Q 2009 4231 1747 4231 
Q 1488 4231 1320 4107 
Q 1153 3984 1056 3741 
Q 963 3503 928 3140 
Q 894 2778 894 2322 
Q 894 1834 923 1506 
Q 953 1178 1053 919 
Q 1144 678 1311 548 
Q 1478 419 1747 419 
Q 2006 419 2173 542 
Q 2341 666 2434 909 
z
" transform="scale(0.015625)"/>
     </defs>
     <use xlink:href="#Tahoma-20"/>
     <use xlink:href="#Tahoma-30" x="31.25"/>
    </g>
    <!--  0 -->
    <g style="fill: #f05400" transform="translate(151.4225 246.0775) scale(0.8 -0.8)">
     <use xlink:href="#Tahoma-20"/>
     <use xlink:href="#Tahoma-30" x="31.25"/>
    </g>
    <!--  0 -->
    <g style="fill: #f05400" transform="translate(151.4225 335.1225) scale(0.8 -0.8)">
     <use xlink:href="#Tahoma-20"/>
     <use xlink:href="#Tahoma-30" x="31.25"/>
    </g>
    <!--  0 -->
    <g style="fill: #f05400" transform="translate(151.4225 424.1675) scale(0.8 -0.8)">
     <use xlink:href="#Tahoma-20"/>
     <use xlink:href="#Tahoma-30" x="31.25"/>
    </g>
    <!--  0 -->
    <g style="fill: #f05400" transform="translate(151.4225 513.2125) scale(0.8 -0.8)">
     <use xlink:href="#Tahoma-20"/>
     <use xlink:href="#Tahoma-30" x="31.25"/>
    </g>
    <!--  0 -->
    <g style="fill: #f05400" transform="translate(151.4225 602.2575) scale(0.8 -0.8)">
     <use xlink:href="#Tahoma-20"/>
     <use xlink:href="#Tahoma-30" x="31.25"/>
    </g>
    <!--  0 -->
    <g style="fill: #f05400" transform="translate(151.4225 691.3025) scale(0.8 -0.8)">
     <use xlink:href="#Tahoma-20"/>
     <use xlink:href="#Tahoma-30" x="31.25"/>
    </g>
   </g>
  </g>
 </g>
</svg>
