<?xml version="1.0" encoding="utf-8" standalone="no"?>
<!DOCTYPE svg PUBLIC "-//W3C//DTD SVG 1.1//EN"
  "http://www.w3.org/Graphics/SVG/1.1/DTD/svg11.dtd">
<svg xmlns:xlink="http://www.w3.org/1999/xlink" width="721.6pt" height="280.512pt" viewBox="0 0 721.6 280.512" xmlns="http://www.w3.org/2000/svg" version="1.1">
 <metadata>
  <rdf:RDF xmlns:dc="http://purl.org/dc/elements/1.1/" xmlns:cc="http://creativecommons.org/ns#" xmlns:rdf="http://www.w3.org/1999/02/22-rdf-syntax-ns#">
   <cc:Work>
    <dc:type rdf:resource="http://purl.org/dc/dcmitype/StillImage"/>
    <dc:date>2023-09-18T18:08:20.270073</dc:date>
    <dc:format>image/svg+xml</dc:format>
    <dc:creator>
     <cc:Agent>
      <dc:title>Matplotlib v3.7.1, https://matplotlib.org/</dc:title>
     </cc:Agent>
    </dc:creator>
   </cc:Work>
  </rdf:RDF>
 </metadata>
 <defs>
  <style type="text/css">*{stroke-linejoin: round; stroke-linecap: butt}</style>
 </defs>
 <g id="figure_1">
  <g id="patch_1">
   <path d="M 0 280.512 
L 721.6 280.512 
L 721.6 0 
L 0 0 
z
" style="fill: #ffffff"/>
  </g>
  <g id="axes_1">
   <g id="text_1">
    <!-- $\frac{\sqrt{2}}{2} |000\rangle+\frac{\sqrt{2}}{2} |100\rangle$ -->
    <g style="fill: #f05400" transform="translate(7.2 173.056) scale(0.8 -0.8)">
     <defs>
      <path id="STIXSizeOneSym-Regular-221a" d="M 6970 9933 
L 3373 -1888 
L 3104 -1888 
L 1626 2918 
Q 1555 3149 1465 3251 
Q 1376 3354 1229 3354 
Q 1011 3354 794 3181 
L 717 3309 
L 1766 4115 
L 1926 4115 
L 3379 -602 
L 3405 -602 
L 6605 9933 
L 6970 9933 
z
" transform="scale(0.015625)"/>
      <path id="DejaVuSans-32" d="M 1228 531 
L 3431 531 
L 3431 0 
L 469 0 
L 469 531 
Q 828 903 1448 1529 
Q 2069 2156 2228 2338 
Q 2531 2678 2651 2914 
Q 2772 3150 2772 3378 
Q 2772 3750 2511 3984 
Q 2250 4219 1831 4219 
Q 1534 4219 1204 4116 
Q 875 4013 500 3803 
L 500 4441 
Q 881 4594 1212 4672 
Q 1544 4750 1819 4750 
Q 2544 4750 2975 4387 
Q 3406 4025 3406 3419 
Q 3406 3131 3298 2873 
Q 3191 2616 2906 2266 
Q 2828 2175 2409 1742 
Q 1991 1309 1228 531 
z
" transform="scale(0.015625)"/>
      <path id="DejaVuSans-7c" d="M 1344 4891 
L 1344 -1509 
L 813 -1509 
L 813 4891 
L 1344 4891 
z
" transform="scale(0.015625)"/>
      <path id="DejaVuSans-30" d="M 2034 4250 
Q 1547 4250 1301 3770 
Q 1056 3291 1056 2328 
Q 1056 1369 1301 889 
Q 1547 409 2034 409 
Q 2525 409 2770 889 
Q 3016 1369 3016 2328 
Q 3016 3291 2770 3770 
Q 2525 4250 2034 4250 
z
M 2034 4750 
Q 2819 4750 3233 4129 
Q 3647 3509 3647 2328 
Q 3647 1150 3233 529 
Q 2819 -91 2034 -91 
Q 1250 -91 836 529 
Q 422 1150 422 2328 
Q 422 3509 836 4129 
Q 1250 4750 2034 4750 
z
" transform="scale(0.015625)"/>
      <path id="DejaVuSans-27e9" d="M 1925 2006 
L 1044 -844 
L 513 -844 
L 1394 2006 
L 513 4856 
L 1044 4856 
L 1925 2006 
z
" transform="scale(0.015625)"/>
      <path id="DejaVuSans-2b" d="M 2944 4013 
L 2944 2272 
L 4684 2272 
L 4684 1741 
L 2944 1741 
L 2944 0 
L 2419 0 
L 2419 1741 
L 678 1741 
L 678 2272 
L 2419 2272 
L 2419 4013 
L 2944 4013 
z
" transform="scale(0.015625)"/>
      <path id="DejaVuSans-31" d="M 794 531 
L 1825 531 
L 1825 4091 
L 703 3866 
L 703 4441 
L 1819 4666 
L 2450 4666 
L 2450 531 
L 3481 531 
L 3481 0 
L 794 0 
L 794 531 
z
" transform="scale(0.015625)"/>
     </defs>
     <use xlink:href="#STIXSizeOneSym-Regular-221a" transform="translate(0 55.871875) scale(0.399712)"/>
     <use xlink:href="#DejaVuSans-32" transform="translate(51.016783 43.671875) scale(0.7)"/>
     <use xlink:href="#DejaVuSans-32" transform="translate(30 -39.1) scale(0.7)"/>
     <use xlink:href="#DejaVuSans-7c" transform="translate(116.802916 0.30625)"/>
     <use xlink:href="#DejaVuSans-30" transform="translate(150.494322 0.30625)"/>
     <use xlink:href="#DejaVuSans-30" transform="translate(214.117369 0.30625)"/>
     <use xlink:href="#DejaVuSans-30" transform="translate(277.740416 0.30625)"/>
     <use xlink:href="#DejaVuSans-27e9" transform="translate(341.363463 0.30625)"/>
     <use xlink:href="#DejaVuSans-2b" transform="translate(399.859557 0.30625)"/>
     <use xlink:href="#STIXSizeOneSym-Regular-221a" transform="translate(503.131041 55.871875) scale(0.399712)"/>
     <use xlink:href="#DejaVuSans-32" transform="translate(554.147824 43.671875) scale(0.7)"/>
     <use xlink:href="#DejaVuSans-32" transform="translate(533.131041 -39.1) scale(0.7)"/>
     <use xlink:href="#DejaVuSans-7c" transform="translate(619.933957 0.30625)"/>
     <use xlink:href="#DejaVuSans-31" transform="translate(653.625363 0.30625)"/>
     <use xlink:href="#DejaVuSans-30" transform="translate(717.24841 0.30625)"/>
     <use xlink:href="#DejaVuSans-30" transform="translate(780.871457 0.30625)"/>
     <use xlink:href="#DejaVuSans-27e9" transform="translate(844.494504 0.30625)"/>
     <path d="M 42.266783 113.25 
L 42.266783 117.625 
L 104.302916 117.625 
L 104.302916 113.25 
L 42.266783 113.25 
z
"/>
     <path d="M 0 19.103125 
L 0 25.353125 
L 104.302916 25.353125 
L 104.302916 19.103125 
L 0 19.103125 
z
"/>
     <path d="M 545.397824 113.25 
L 545.397824 117.625 
L 607.433957 117.625 
L 607.433957 113.25 
L 545.397824 113.25 
z
"/>
     <path d="M 503.131041 19.103125 
L 503.131041 25.353125 
L 607.433957 25.353125 
L 607.433957 19.103125 
L 503.131041 19.103125 
z
"/>
    </g>
   </g>
  </g>
 </g>
</svg>
