<?xml version="1.0" encoding="utf-8" standalone="no"?>
<!DOCTYPE svg PUBLIC "-//W3C//DTD SVG 1.1//EN"
  "http://www.w3.org/Graphics/SVG/1.1/DTD/svg11.dtd">
<svg xmlns:xlink="http://www.w3.org/1999/xlink" width="1335.2pt" height="280.512pt" viewBox="0 0 1335.2 280.512" xmlns="http://www.w3.org/2000/svg" version="1.1">
 <metadata>
  <rdf:RDF xmlns:dc="http://purl.org/dc/elements/1.1/" xmlns:cc="http://creativecommons.org/ns#" xmlns:rdf="http://www.w3.org/1999/02/22-rdf-syntax-ns#">
   <cc:Work>
    <dc:type rdf:resource="http://purl.org/dc/dcmitype/StillImage"/>
    <dc:date>2023-09-18T18:08:20.373697</dc:date>
    <dc:format>image/svg+xml</dc:format>
    <dc:creator>
     <cc:Agent>
      <dc:title>Matplotlib v3.7.1, https://matplotlib.org/</dc:title>
     </cc:Agent>
    </dc:creator>
   </cc:Work>
  </rdf:RDF>
 </metadata>
 <defs>
  <style type="text/css">*{stroke-linejoin: round; stroke-linecap: butt}</style>
 </defs>
 <g id="figure_1">
  <g id="patch_1">
   <path d="M 0 280.512 
L 1335.2 280.512 
L 1335.2 0 
L 0 0 
z
" style="fill: #ffffff"/>
  </g>
  <g id="axes_1">
   <g id="text_1">
    <!-- $\frac{1}{2} |000\rangle+\frac{1}{2} |010\rangle+\frac{1}{2} |100\rangle- \frac{1}{2} |110\rangle$ -->
    <g style="fill: #f05400" transform="translate(7.2 162.256) scale(0.8 -0.8)">
     <defs>
      <path id="DejaVuSans-31" d="M 794 531 
L 1825 531 
L 1825 4091 
L 703 3866 
L 703 4441 
L 1819 4666 
L 2450 4666 
L 2450 531 
L 3481 531 
L 3481 0 
L 794 0 
L 794 531 
z
" transform="scale(0.015625)"/>
      <path id="DejaVuSans-32" d="M 1228 531 
L 3431 531 
L 3431 0 
L 469 0 
L 469 531 
Q 828 903 1448 1529 
Q 2069 2156 2228 2338 
Q 2531 2678 2651 2914 
Q 2772 3150 2772 3378 
Q 2772 3750 2511 3984 
Q 2250 4219 1831 4219 
Q 1534 4219 1204 4116 
Q 875 4013 500 3803 
L 500 4441 
Q 881 4594 1212 4672 
Q 1544 4750 1819 4750 
Q 2544 4750 2975 4387 
Q 3406 4025 3406 3419 
Q 3406 3131 3298 2873 
Q 3191 2616 2906 2266 
Q 2828 2175 2409 1742 
Q 1991 1309 1228 531 
z
" transform="scale(0.015625)"/>
      <path id="DejaVuSans-7c" d="M 1344 4891 
L 1344 -1509 
L 813 -1509 
L 813 4891 
L 1344 4891 
z
" transform="scale(0.015625)"/>
      <path id="DejaVuSans-30" d="M 2034 4250 
Q 1547 4250 1301 3770 
Q 1056 3291 1056 2328 
Q 1056 1369 1301 889 
Q 1547 409 2034 409 
Q 2525 409 2770 889 
Q 3016 1369 3016 2328 
Q 3016 3291 2770 3770 
Q 2525 4250 2034 4250 
z
M 2034 4750 
Q 2819 4750 3233 4129 
Q 3647 3509 3647 2328 
Q 3647 1150 3233 529 
Q 2819 -91 2034 -91 
Q 1250 -91 836 529 
Q 422 1150 422 2328 
Q 422 3509 836 4129 
Q 1250 4750 2034 4750 
z
" transform="scale(0.015625)"/>
      <path id="DejaVuSans-27e9" d="M 1925 2006 
L 1044 -844 
L 513 -844 
L 1394 2006 
L 513 4856 
L 1044 4856 
L 1925 2006 
z
" transform="scale(0.015625)"/>
      <path id="DejaVuSans-2b" d="M 2944 4013 
L 2944 2272 
L 4684 2272 
L 4684 1741 
L 2944 1741 
L 2944 0 
L 2419 0 
L 2419 1741 
L 678 1741 
L 678 2272 
L 2419 2272 
L 2419 4013 
L 2944 4013 
z
" transform="scale(0.015625)"/>
      <path id="DejaVuSans-2212" d="M 678 2272 
L 4684 2272 
L 4684 1741 
L 678 1741 
L 678 2272 
z
" transform="scale(0.015625)"/>
     </defs>
     <use xlink:href="#DejaVuSans-31" transform="translate(0 43.965625) scale(0.7)"/>
     <use xlink:href="#DejaVuSans-32" transform="translate(0 -39.2375) scale(0.7)"/>
     <use xlink:href="#DejaVuSans-7c" transform="translate(57.036133 0.16875)"/>
     <use xlink:href="#DejaVuSans-30" transform="translate(90.727539 0.16875)"/>
     <use xlink:href="#DejaVuSans-30" transform="translate(154.350586 0.16875)"/>
     <use xlink:href="#DejaVuSans-30" transform="translate(217.973633 0.16875)"/>
     <use xlink:href="#DejaVuSans-27e9" transform="translate(281.59668 0.16875)"/>
     <use xlink:href="#DejaVuSans-2b" transform="translate(340.092773 0.16875)"/>
     <use xlink:href="#DejaVuSans-31" transform="translate(443.364258 43.965625) scale(0.7)"/>
     <use xlink:href="#DejaVuSans-32" transform="translate(443.364258 -39.2375) scale(0.7)"/>
     <use xlink:href="#DejaVuSans-7c" transform="translate(500.400391 0.16875)"/>
     <use xlink:href="#DejaVuSans-30" transform="translate(534.091797 0.16875)"/>
     <use xlink:href="#DejaVuSans-31" transform="translate(597.714844 0.16875)"/>
     <use xlink:href="#DejaVuSans-30" transform="translate(661.337891 0.16875)"/>
     <use xlink:href="#DejaVuSans-27e9" transform="translate(724.960938 0.16875)"/>
     <use xlink:href="#DejaVuSans-2b" transform="translate(783.457031 0.16875)"/>
     <use xlink:href="#DejaVuSans-31" transform="translate(886.728516 43.965625) scale(0.7)"/>
     <use xlink:href="#DejaVuSans-32" transform="translate(886.728516 -39.2375) scale(0.7)"/>
     <use xlink:href="#DejaVuSans-7c" transform="translate(943.764648 0.16875)"/>
     <use xlink:href="#DejaVuSans-31" transform="translate(977.456055 0.16875)"/>
     <use xlink:href="#DejaVuSans-30" transform="translate(1041.079102 0.16875)"/>
     <use xlink:href="#DejaVuSans-30" transform="translate(1104.702148 0.16875)"/>
     <use xlink:href="#DejaVuSans-27e9" transform="translate(1168.325195 0.16875)"/>
     <use xlink:href="#DejaVuSans-2212" transform="translate(1226.821289 0.16875)"/>
     <use xlink:href="#DejaVuSans-31" transform="translate(1330.092773 43.965625) scale(0.7)"/>
     <use xlink:href="#DejaVuSans-32" transform="translate(1330.092773 -39.2375) scale(0.7)"/>
     <use xlink:href="#DejaVuSans-7c" transform="translate(1387.128906 0.16875)"/>
     <use xlink:href="#DejaVuSans-31" transform="translate(1420.820312 0.16875)"/>
     <use xlink:href="#DejaVuSans-31" transform="translate(1484.443359 0.16875)"/>
     <use xlink:href="#DejaVuSans-30" transform="translate(1548.066406 0.16875)"/>
     <use xlink:href="#DejaVuSans-27e9" transform="translate(1611.689453 0.16875)"/>
     <path d="M 0 18.965625 
L 0 25.215625 
L 44.536133 25.215625 
L 44.536133 18.965625 
L 0 18.965625 
z
"/>
     <path d="M 443.364258 18.965625 
L 443.364258 25.215625 
L 487.900391 25.215625 
L 487.900391 18.965625 
L 443.364258 18.965625 
z
"/>
     <path d="M 886.728516 18.965625 
L 886.728516 25.215625 
L 931.264648 25.215625 
L 931.264648 18.965625 
L 886.728516 18.965625 
z
"/>
     <path d="M 1330.092773 18.965625 
L 1330.092773 25.215625 
L 1374.628906 25.215625 
L 1374.628906 18.965625 
L 1330.092773 18.965625 
z
"/>
    </g>
   </g>
  </g>
 </g>
</svg>
