<?xml version="1.0" encoding="utf-8" standalone="no"?>
<!DOCTYPE svg PUBLIC "-//W3C//DTD SVG 1.1//EN"
  "http://www.w3.org/Graphics/SVG/1.1/DTD/svg11.dtd">
<svg xmlns:xlink="http://www.w3.org/1999/xlink" width="952.9125pt" height="714.6025pt" viewBox="0 0 952.9125 714.6025" xmlns="http://www.w3.org/2000/svg" version="1.1">
 <metadata>
  <rdf:RDF xmlns:dc="http://purl.org/dc/elements/1.1/" xmlns:cc="http://creativecommons.org/ns#" xmlns:rdf="http://www.w3.org/1999/02/22-rdf-syntax-ns#">
   <cc:Work>
    <dc:type rdf:resource="http://purl.org/dc/dcmitype/StillImage"/>
    <dc:date>2023-09-18T18:08:21.106894</dc:date>
    <dc:format>image/svg+xml</dc:format>
    <dc:creator>
     <cc:Agent>
      <dc:title>Matplotlib v3.7.1, https://matplotlib.org/</dc:title>
     </cc:Agent>
    </dc:creator>
   </cc:Work>
  </rdf:RDF>
 </metadata>
 <defs>
  <style type="text/css">*{stroke-linejoin: round; stroke-linecap: butt}</style>
 </defs>
 <g id="figure_1">
  <g id="patch_1">
   <path d="M -0 714.6025 
L 952.9125 714.6025 
L 952.9125 0 
L -0 0 
z
" style="fill: #ffffff"/>
  </g>
  <g id="axes_1">
   <g id="text_1">
    <!--  1 | 0 | 0 | 0 | 0 | 0 | 0 | 0 -->
    <g style="fill: #f05400" transform="translate(7.2 67.9875) scale(0.8 -0.8)">
     <defs>
      <path id="Tahoma-20" transform="scale(0.015625)"/>
      <path id="Tahoma-31" d="M 2975 0 
L 706 0 
L 706 475 
L 1550 475 
L 1550 3594 
L 706 3594 
L 706 4019 
Q 1184 4019 1411 4155 
Q 1638 4291 1666 4669 
L 2150 4669 
L 2150 475 
L 2975 475 
L 2975 0 
z
" transform="scale(0.015625)"/>
      <path id="Tahoma-7c" d="M 1484 -1225 
L 963 -1225 
L 963 4863 
L 1484 4863 
L 1484 -1225 
z
" transform="scale(0.015625)"/>
      <path id="Tahoma-30" d="M 3234 2328 
Q 3234 1075 2870 489 
Q 2506 -97 1747 -97 
Q 978 -97 618 500 
Q 259 1097 259 2322 
Q 259 3581 623 4164 
Q 988 4747 1747 4747 
Q 2516 4747 2875 4144 
Q 3234 3541 3234 2328 
z
M 2434 909 
Q 2525 1141 2562 1494 
Q 2600 1847 2600 2328 
Q 2600 2806 2562 3159 
Q 2525 3513 2431 3747 
Q 2338 3984 2173 4107 
Q 2009 4231 1747 4231 
Q 1488 4231 1320 4107 
Q 1153 3984 1056 3741 
Q 963 3503 928 3140 
Q 894 2778 894 2322 
Q 894 1834 923 1506 
Q 953 1178 1053 919 
Q 1144 678 1311 548 
Q 1478 419 1747 419 
Q 2006 419 2173 542 
Q 2341 666 2434 909 
z
" transform="scale(0.015625)"/>
     </defs>
     <use xlink:href="#Tahoma-20"/>
     <use xlink:href="#Tahoma-31" x="31.25"/>
     <use xlink:href="#Tahoma-20" x="85.839844"/>
     <use xlink:href="#Tahoma-7c" x="117.089844"/>
     <use xlink:href="#Tahoma-20" x="155.322266"/>
     <use xlink:href="#Tahoma-30" x="186.572266"/>
     <use xlink:href="#Tahoma-20" x="241.162109"/>
     <use xlink:href="#Tahoma-7c" x="272.412109"/>
     <use xlink:href="#Tahoma-20" x="310.644531"/>
     <use xlink:href="#Tahoma-30" x="341.894531"/>
     <use xlink:href="#Tahoma-20" x="396.484375"/>
     <use xlink:href="#Tahoma-7c" x="427.734375"/>
     <use xlink:href="#Tahoma-20" x="465.966797"/>
     <use xlink:href="#Tahoma-30" x="497.216797"/>
     <use xlink:href="#Tahoma-20" x="551.806641"/>
     <use xlink:href="#Tahoma-7c" x="583.056641"/>
     <use xlink:href="#Tahoma-20" x="621.289062"/>
     <use xlink:href="#Tahoma-30" x="652.539062"/>
     <use xlink:href="#Tahoma-20" x="707.128906"/>
     <use xlink:href="#Tahoma-7c" x="738.378906"/>
     <use xlink:href="#Tahoma-20" x="776.611328"/>
     <use xlink:href="#Tahoma-30" x="807.861328"/>
     <use xlink:href="#Tahoma-20" x="862.451172"/>
     <use xlink:href="#Tahoma-7c" x="893.701172"/>
     <use xlink:href="#Tahoma-20" x="931.933594"/>
     <use xlink:href="#Tahoma-30" x="963.183594"/>
     <use xlink:href="#Tahoma-20" x="1017.773438"/>
     <use xlink:href="#Tahoma-7c" x="1049.023438"/>
     <use xlink:href="#Tahoma-20" x="1087.255859"/>
     <use xlink:href="#Tahoma-30" x="1118.505859"/>
    </g>
    <!--  0 | 1 | 0 | 0 | 0 | 0 | 0 | 0 -->
    <g style="fill: #f05400" transform="translate(7.2 157.0325) scale(0.8 -0.8)">
     <use xlink:href="#Tahoma-20"/>
     <use xlink:href="#Tahoma-30" x="31.25"/>
     <use xlink:href="#Tahoma-20" x="85.839844"/>
     <use xlink:href="#Tahoma-7c" x="117.089844"/>
     <use xlink:href="#Tahoma-20" x="155.322266"/>
     <use xlink:href="#Tahoma-31" x="186.572266"/>
     <use xlink:href="#Tahoma-20" x="241.162109"/>
     <use xlink:href="#Tahoma-7c" x="272.412109"/>
     <use xlink:href="#Tahoma-20" x="310.644531"/>
     <use xlink:href="#Tahoma-30" x="341.894531"/>
     <use xlink:href="#Tahoma-20" x="396.484375"/>
     <use xlink:href="#Tahoma-7c" x="427.734375"/>
     <use xlink:href="#Tahoma-20" x="465.966797"/>
     <use xlink:href="#Tahoma-30" x="497.216797"/>
     <use xlink:href="#Tahoma-20" x="551.806641"/>
     <use xlink:href="#Tahoma-7c" x="583.056641"/>
     <use xlink:href="#Tahoma-20" x="621.289062"/>
     <use xlink:href="#Tahoma-30" x="652.539062"/>
     <use xlink:href="#Tahoma-20" x="707.128906"/>
     <use xlink:href="#Tahoma-7c" x="738.378906"/>
     <use xlink:href="#Tahoma-20" x="776.611328"/>
     <use xlink:href="#Tahoma-30" x="807.861328"/>
     <use xlink:href="#Tahoma-20" x="862.451172"/>
     <use xlink:href="#Tahoma-7c" x="893.701172"/>
     <use xlink:href="#Tahoma-20" x="931.933594"/>
     <use xlink:href="#Tahoma-30" x="963.183594"/>
     <use xlink:href="#Tahoma-20" x="1017.773438"/>
     <use xlink:href="#Tahoma-7c" x="1049.023438"/>
     <use xlink:href="#Tahoma-20" x="1087.255859"/>
     <use xlink:href="#Tahoma-30" x="1118.505859"/>
    </g>
    <!--  0 | 0 | 1 | 0 | 0 | 0 | 0 | 0 -->
    <g style="fill: #f05400" transform="translate(7.2 246.0775) scale(0.8 -0.8)">
     <use xlink:href="#Tahoma-20"/>
     <use xlink:href="#Tahoma-30" x="31.25"/>
     <use xlink:href="#Tahoma-20" x="85.839844"/>
     <use xlink:href="#Tahoma-7c" x="117.089844"/>
     <use xlink:href="#Tahoma-20" x="155.322266"/>
     <use xlink:href="#Tahoma-30" x="186.572266"/>
     <use xlink:href="#Tahoma-20" x="241.162109"/>
     <use xlink:href="#Tahoma-7c" x="272.412109"/>
     <use xlink:href="#Tahoma-20" x="310.644531"/>
     <use xlink:href="#Tahoma-31" x="341.894531"/>
     <use xlink:href="#Tahoma-20" x="396.484375"/>
     <use xlink:href="#Tahoma-7c" x="427.734375"/>
     <use xlink:href="#Tahoma-20" x="465.966797"/>
     <use xlink:href="#Tahoma-30" x="497.216797"/>
     <use xlink:href="#Tahoma-20" x="551.806641"/>
     <use xlink:href="#Tahoma-7c" x="583.056641"/>
     <use xlink:href="#Tahoma-20" x="621.289062"/>
     <use xlink:href="#Tahoma-30" x="652.539062"/>
     <use xlink:href="#Tahoma-20" x="707.128906"/>
     <use xlink:href="#Tahoma-7c" x="738.378906"/>
     <use xlink:href="#Tahoma-20" x="776.611328"/>
     <use xlink:href="#Tahoma-30" x="807.861328"/>
     <use xlink:href="#Tahoma-20" x="862.451172"/>
     <use xlink:href="#Tahoma-7c" x="893.701172"/>
     <use xlink:href="#Tahoma-20" x="931.933594"/>
     <use xlink:href="#Tahoma-30" x="963.183594"/>
     <use xlink:href="#Tahoma-20" x="1017.773438"/>
     <use xlink:href="#Tahoma-7c" x="1049.023438"/>
     <use xlink:href="#Tahoma-20" x="1087.255859"/>
     <use xlink:href="#Tahoma-30" x="1118.505859"/>
    </g>
    <!--  0 | 0 | 0 | i | 0 | 0 | 0 | 0 -->
    <g style="fill: #f05400" transform="translate(19.89375 335.1225) scale(0.8 -0.8)">
     <defs>
      <path id="Tahoma-69" d="M 1025 0 
L 438 0 
L 438 3491 
L 1025 3491 
L 1025 0 
z
M 1066 4075 
L 397 4075 
L 397 4684 
L 1066 4684 
L 1066 4075 
z
" transform="scale(0.015625)"/>
     </defs>
     <use xlink:href="#Tahoma-20"/>
     <use xlink:href="#Tahoma-30" x="31.25"/>
     <use xlink:href="#Tahoma-20" x="85.839844"/>
     <use xlink:href="#Tahoma-7c" x="117.089844"/>
     <use xlink:href="#Tahoma-20" x="155.322266"/>
     <use xlink:href="#Tahoma-30" x="186.572266"/>
     <use xlink:href="#Tahoma-20" x="241.162109"/>
     <use xlink:href="#Tahoma-7c" x="272.412109"/>
     <use xlink:href="#Tahoma-20" x="310.644531"/>
     <use xlink:href="#Tahoma-30" x="341.894531"/>
     <use xlink:href="#Tahoma-20" x="396.484375"/>
     <use xlink:href="#Tahoma-7c" x="427.734375"/>
     <use xlink:href="#Tahoma-20" x="465.966797"/>
     <use xlink:href="#Tahoma-69" x="497.216797"/>
     <use xlink:href="#Tahoma-20" x="520.068359"/>
     <use xlink:href="#Tahoma-7c" x="551.318359"/>
     <use xlink:href="#Tahoma-20" x="589.550781"/>
     <use xlink:href="#Tahoma-30" x="620.800781"/>
     <use xlink:href="#Tahoma-20" x="675.390625"/>
     <use xlink:href="#Tahoma-7c" x="706.640625"/>
     <use xlink:href="#Tahoma-20" x="744.873047"/>
     <use xlink:href="#Tahoma-30" x="776.123047"/>
     <use xlink:href="#Tahoma-20" x="830.712891"/>
     <use xlink:href="#Tahoma-7c" x="861.962891"/>
     <use xlink:href="#Tahoma-20" x="900.195312"/>
     <use xlink:href="#Tahoma-30" x="931.445312"/>
     <use xlink:href="#Tahoma-20" x="986.035156"/>
     <use xlink:href="#Tahoma-7c" x="1017.285156"/>
     <use xlink:href="#Tahoma-20" x="1055.517578"/>
     <use xlink:href="#Tahoma-30" x="1086.767578"/>
    </g>
    <!--  0 | 0 | 0 | 0 | 1 | 0 | 0 | 0 -->
    <g style="fill: #f05400" transform="translate(7.2 424.1675) scale(0.8 -0.8)">
     <use xlink:href="#Tahoma-20"/>
     <use xlink:href="#Tahoma-30" x="31.25"/>
     <use xlink:href="#Tahoma-20" x="85.839844"/>
     <use xlink:href="#Tahoma-7c" x="117.089844"/>
     <use xlink:href="#Tahoma-20" x="155.322266"/>
     <use xlink:href="#Tahoma-30" x="186.572266"/>
     <use xlink:href="#Tahoma-20" x="241.162109"/>
     <use xlink:href="#Tahoma-7c" x="272.412109"/>
     <use xlink:href="#Tahoma-20" x="310.644531"/>
     <use xlink:href="#Tahoma-30" x="341.894531"/>
     <use xlink:href="#Tahoma-20" x="396.484375"/>
     <use xlink:href="#Tahoma-7c" x="427.734375"/>
     <use xlink:href="#Tahoma-20" x="465.966797"/>
     <use xlink:href="#Tahoma-30" x="497.216797"/>
     <use xlink:href="#Tahoma-20" x="551.806641"/>
     <use xlink:href="#Tahoma-7c" x="583.056641"/>
     <use xlink:href="#Tahoma-20" x="621.289062"/>
     <use xlink:href="#Tahoma-31" x="652.539062"/>
     <use xlink:href="#Tahoma-20" x="707.128906"/>
     <use xlink:href="#Tahoma-7c" x="738.378906"/>
     <use xlink:href="#Tahoma-20" x="776.611328"/>
     <use xlink:href="#Tahoma-30" x="807.861328"/>
     <use xlink:href="#Tahoma-20" x="862.451172"/>
     <use xlink:href="#Tahoma-7c" x="893.701172"/>
     <use xlink:href="#Tahoma-20" x="931.933594"/>
     <use xlink:href="#Tahoma-30" x="963.183594"/>
     <use xlink:href="#Tahoma-20" x="1017.773438"/>
     <use xlink:href="#Tahoma-7c" x="1049.023438"/>
     <use xlink:href="#Tahoma-20" x="1087.255859"/>
     <use xlink:href="#Tahoma-30" x="1118.505859"/>
    </g>
    <!--  0 | 0 | 0 | 0 | 0 | 1 | 0 | 0 -->
    <g style="fill: #f05400" transform="translate(7.2 513.2125) scale(0.8 -0.8)">
     <use xlink:href="#Tahoma-20"/>
     <use xlink:href="#Tahoma-30" x="31.25"/>
     <use xlink:href="#Tahoma-20" x="85.839844"/>
     <use xlink:href="#Tahoma-7c" x="117.089844"/>
     <use xlink:href="#Tahoma-20" x="155.322266"/>
     <use xlink:href="#Tahoma-30" x="186.572266"/>
     <use xlink:href="#Tahoma-20" x="241.162109"/>
     <use xlink:href="#Tahoma-7c" x="272.412109"/>
     <use xlink:href="#Tahoma-20" x="310.644531"/>
     <use xlink:href="#Tahoma-30" x="341.894531"/>
     <use xlink:href="#Tahoma-20" x="396.484375"/>
     <use xlink:href="#Tahoma-7c" x="427.734375"/>
     <use xlink:href="#Tahoma-20" x="465.966797"/>
     <use xlink:href="#Tahoma-30" x="497.216797"/>
     <use xlink:href="#Tahoma-20" x="551.806641"/>
     <use xlink:href="#Tahoma-7c" x="583.056641"/>
     <use xlink:href="#Tahoma-20" x="621.289062"/>
     <use xlink:href="#Tahoma-30" x="652.539062"/>
     <use xlink:href="#Tahoma-20" x="707.128906"/>
     <use xlink:href="#Tahoma-7c" x="738.378906"/>
     <use xlink:href="#Tahoma-20" x="776.611328"/>
     <use xlink:href="#Tahoma-31" x="807.861328"/>
     <use xlink:href="#Tahoma-20" x="862.451172"/>
     <use xlink:href="#Tahoma-7c" x="893.701172"/>
     <use xlink:href="#Tahoma-20" x="931.933594"/>
     <use xlink:href="#Tahoma-30" x="963.183594"/>
     <use xlink:href="#Tahoma-20" x="1017.773438"/>
     <use xlink:href="#Tahoma-7c" x="1049.023438"/>
     <use xlink:href="#Tahoma-20" x="1087.255859"/>
     <use xlink:href="#Tahoma-30" x="1118.505859"/>
    </g>
    <!--  0 | 0 | 0 | 0 | 0 | 0 | 1 | 0 -->
    <g style="fill: #f05400" transform="translate(7.2 602.2575) scale(0.8 -0.8)">
     <use xlink:href="#Tahoma-20"/>
     <use xlink:href="#Tahoma-30" x="31.25"/>
     <use xlink:href="#Tahoma-20" x="85.839844"/>
     <use xlink:href="#Tahoma-7c" x="117.089844"/>
     <use xlink:href="#Tahoma-20" x="155.322266"/>
     <use xlink:href="#Tahoma-30" x="186.572266"/>
     <use xlink:href="#Tahoma-20" x="241.162109"/>
     <use xlink:href="#Tahoma-7c" x="272.412109"/>
     <use xlink:href="#Tahoma-20" x="310.644531"/>
     <use xlink:href="#Tahoma-30" x="341.894531"/>
     <use xlink:href="#Tahoma-20" x="396.484375"/>
     <use xlink:href="#Tahoma-7c" x="427.734375"/>
     <use xlink:href="#Tahoma-20" x="465.966797"/>
     <use xlink:href="#Tahoma-30" x="497.216797"/>
     <use xlink:href="#Tahoma-20" x="551.806641"/>
     <use xlink:href="#Tahoma-7c" x="583.056641"/>
     <use xlink:href="#Tahoma-20" x="621.289062"/>
     <use xlink:href="#Tahoma-30" x="652.539062"/>
     <use xlink:href="#Tahoma-20" x="707.128906"/>
     <use xlink:href="#Tahoma-7c" x="738.378906"/>
     <use xlink:href="#Tahoma-20" x="776.611328"/>
     <use xlink:href="#Tahoma-30" x="807.861328"/>
     <use xlink:href="#Tahoma-20" x="862.451172"/>
     <use xlink:href="#Tahoma-7c" x="893.701172"/>
     <use xlink:href="#Tahoma-20" x="931.933594"/>
     <use xlink:href="#Tahoma-31" x="963.183594"/>
     <use xlink:href="#Tahoma-20" x="1017.773438"/>
     <use xlink:href="#Tahoma-7c" x="1049.023438"/>
     <use xlink:href="#Tahoma-20" x="1087.255859"/>
     <use xlink:href="#Tahoma-30" x="1118.505859"/>
    </g>
    <!--  0 | 0 | 0 | 0 | 0 | 0 | 0 | i -->
    <g style="fill: #f05400" transform="translate(19.89375 691.3025) scale(0.8 -0.8)">
     <use xlink:href="#Tahoma-20"/>
     <use xlink:href="#Tahoma-30" x="31.25"/>
     <use xlink:href="#Tahoma-20" x="85.839844"/>
     <use xlink:href="#Tahoma-7c" x="117.089844"/>
     <use xlink:href="#Tahoma-20" x="155.322266"/>
     <use xlink:href="#Tahoma-30" x="186.572266"/>
     <use xlink:href="#Tahoma-20" x="241.162109"/>
     <use xlink:href="#Tahoma-7c" x="272.412109"/>
     <use xlink:href="#Tahoma-20" x="310.644531"/>
     <use xlink:href="#Tahoma-30" x="341.894531"/>
     <use xlink:href="#Tahoma-20" x="396.484375"/>
     <use xlink:href="#Tahoma-7c" x="427.734375"/>
     <use xlink:href="#Tahoma-20" x="465.966797"/>
     <use xlink:href="#Tahoma-30" x="497.216797"/>
     <use xlink:href="#Tahoma-20" x="551.806641"/>
     <use xlink:href="#Tahoma-7c" x="583.056641"/>
     <use xlink:href="#Tahoma-20" x="621.289062"/>
     <use xlink:href="#Tahoma-30" x="652.539062"/>
     <use xlink:href="#Tahoma-20" x="707.128906"/>
     <use xlink:href="#Tahoma-7c" x="738.378906"/>
     <use xlink:href="#Tahoma-20" x="776.611328"/>
     <use xlink:href="#Tahoma-30" x="807.861328"/>
     <use xlink:href="#Tahoma-20" x="862.451172"/>
     <use xlink:href="#Tahoma-7c" x="893.701172"/>
     <use xlink:href="#Tahoma-20" x="931.933594"/>
     <use xlink:href="#Tahoma-30" x="963.183594"/>
     <use xlink:href="#Tahoma-20" x="1017.773438"/>
     <use xlink:href="#Tahoma-7c" x="1049.023438"/>
     <use xlink:href="#Tahoma-20" x="1087.255859"/>
     <use xlink:href="#Tahoma-69" x="1118.505859"/>
    </g>
   </g>
  </g>
 </g>
</svg>
